<svg aria-hidden="true" style="position: absolute; width: 0; height: 0; overflow: hidden;" version="1.1" xmlns="http://www.w3.org/2000/svg" xmlns:xlink="http://www.w3.org/1999/xlink">
<defs>
<symbol id="icon-display" viewBox="0 0 32 32">
<path d="M27 4.996l-22 0.004c-0.553 0-1 0.443-1 0.996v14c0 0.553 0.447 1 1 1h22c0.553 0 1-0.447 1-1v-14c0-0.553-0.447-1-1-1zM27 20h-22v-14.004h22v14.004zM29 1h-26c-1.657 0-3 1.342-3 3v20c0 1.654 1.338 2.994 2.99 2.998h10.010v1.217l-6.242 0.811c-0.446 0.111-0.758 0.511-0.758 0.97 0 0.553 0.447 1 1 1h18c0.553 0 1-0.447 1-1 0-0.459-0.312-0.859-0.758-0.971l-6.242-0.81v-1.217h10.010c1.652-0.004 2.99-1.344 2.99-2.998v-20c0-1.658-1.344-3-3-3zM30 24c0 0.551-0.449 1-1 1h-26c-0.552 0-1-0.449-1-1v-20c0-0.552 0.448-1 1-1h26c0.551 0 1 0.448 1 1v20z"></path>
</symbol>
<symbol id="icon-bluetooth" viewBox="0 0 20 20">
<path d="M9.41 0l6 6-4 4 4 4-6 6h-0.41v-7.59l-3.3 3.3-1.4-1.42 4.28-4.29-4.3-4.3 1.42-1.4 3.3 3.28v-7.58h0.41zM11 4.41v3.19l1.59-1.6-1.59-1.59zM12.59 14l-1.59-1.59v3.18l1.59-1.59z"></path>
</symbol>
<symbol id="icon-light-bulb" viewBox="0 0 20 20">
<path d="M7.186 19.172c0.789 0.51 1.701 0.855 2.814 0.828 1.111 0.027 2.025-0.318 2.814-0.828l-0.017-2.172h-5.594l-0.017 2.172zM12.697 16c0-4.357 4.63-5.848 4.283-10.188-0.218-2.738-2.073-5.81-6.98-5.81s-6.762 3.072-6.981 5.811c-0.347 4.339 4.284 5.83 4.284 10.187h5.394zM5 6c0.207-2.598 2.113-4 5-4s4.654 1.371 4.861 3.969c0.113 1.424-0.705 2.373-1.809 3.926-0.814 1.146-1.603 2.343-2.052 4.105h-2c-0.449-1.762-1.238-2.959-2.053-4.106-1.103-1.552-2.061-2.47-1.947-3.894z"></path>
</symbol>
<symbol id="icon-battery-full" viewBox="0 0 24 24">
<path d="M9 16c-0.552 0-1-0.447-1-1v-4c0-0.553 0.448-1 1-1s1 0.447 1 1v4c0 0.553-0.448 1-1 1z"></path>
<path d="M6 16c-0.552 0-1-0.447-1-1v-4c0-0.553 0.448-1 1-1s1 0.447 1 1v4c0 0.553-0.448 1-1 1z"></path>
<path d="M15 16c-0.552 0-1-0.447-1-1v-4c0-0.553 0.448-1 1-1s1 0.447 1 1v4c0 0.553-0.448 1-1 1z"></path>
<path d="M12 16c-0.552 0-1-0.447-1-1v-4c0-0.553 0.448-1 1-1s1 0.447 1 1v4c0 0.553-0.448 1-1 1z"></path>
<path d="M19 10c0-1.654-1.346-3-3-3h-11c-1.654 0-3 1.346-3 3v6c0 1.654 1.346 3 3 3h11c1.654 0 3-1.346 3-3 1.104 0 2-0.896 2-2v-2c0-1.104-0.896-2-2-2zM17 16c0 0.552-0.449 1-1 1h-11c-0.551 0-1-0.448-1-1v-6c0-0.552 0.449-1 1-1h11c0.551 0 1 0.448 1 1v6z"></path>
</symbol>
</defs>
</svg>
